<svg width="140" height="141" viewBox="0 0 140 141" fill="none" xmlns="http://www.w3.org/2000/svg">
<circle cx="66.2333" cy="66.1512" r="66.0165" fill="#272727"/>
<circle cx="66.2333" cy="66.1512" r="65.0165" stroke="#FAD32E" stroke-opacity="0.6" stroke-width="2"/>
<g filter="url(#filter0_d_269_13)">
<path d="M69.3338 41.395C69.9711 41.395 70.4613 41.9149 70.4613 42.5338V50.5053C70.4613 55.0357 74.1625 58.7491 78.648 58.7739C80.5109 58.7739 81.9815 58.7986 83.109 58.7986L83.5266 58.7968C84.2801 58.791 85.2946 58.7739 86.1729 58.7739C86.7857 58.7739 87.2759 59.269 87.2759 59.8879V79.7918C87.2759 85.9314 82.3492 90.9074 76.2705 90.9074H56.7597C50.3868 90.9074 45.1904 85.6838 45.1904 79.2472V52.5601C45.1904 46.4205 50.1417 41.395 56.2449 41.395H69.3338ZM71.9565 73.3305H58.6225C57.6175 73.3305 56.7842 74.1474 56.7842 75.1624C56.7842 76.1774 57.6175 77.0192 58.6225 77.0192H71.9565C72.9615 77.0192 73.7948 76.1774 73.7948 75.1624C73.7948 74.1474 72.9615 73.3305 71.9565 73.3305ZM66.9072 60.9524H58.6225C57.6175 60.9524 56.7842 61.7941 56.7842 62.8091C56.7842 63.8241 57.6175 64.6411 58.6225 64.6411H66.9072C67.9122 64.6411 68.7456 63.8241 68.7456 62.8091C68.7456 61.7941 67.9122 60.9524 66.9072 60.9524ZM74.0331 43.6379C74.0331 42.5709 75.315 42.0412 76.0479 42.8111C78.6975 45.5937 83.3277 50.4583 85.9161 53.1765C86.6318 53.9266 86.1072 55.1718 85.0753 55.1743C83.0605 55.1817 80.6854 55.1743 78.977 55.157C76.2661 55.157 74.0331 52.9017 74.0331 50.1637V43.6379Z" fill="url(#paint0_linear_269_13)"/>
</g>
<defs>
<filter id="filter0_d_269_13" x="13.1904" y="7.39502" width="126.085" height="133.512" filterUnits="userSpaceOnUse" color-interpolation-filters="sRGB">
<feFlood flood-opacity="0" result="BackgroundImageFix"/>
<feColorMatrix in="SourceAlpha" type="matrix" values="0 0 0 0 0 0 0 0 0 0 0 0 0 0 0 0 0 0 127 0" result="hardAlpha"/>
<feOffset dx="10" dy="8"/>
<feGaussianBlur stdDeviation="21"/>
<feComposite in2="hardAlpha" operator="out"/>
<feColorMatrix type="matrix" values="0 0 0 0 0.980392 0 0 0 0 0.827451 0 0 0 0 0.180392 0 0 0 0.1 0"/>
<feBlend mode="normal" in2="BackgroundImageFix" result="effect1_dropShadow_269_13"/>
<feBlend mode="normal" in="SourceGraphic" in2="effect1_dropShadow_269_13" result="shape"/>
</filter>
<linearGradient id="paint0_linear_269_13" x1="46.7686" y1="66.1512" x2="87.2759" y2="66.1512" gradientUnits="userSpaceOnUse">
<stop stop-color="#FAD32E"/>
<stop offset="1" stop-color="#FFAC30"/>
</linearGradient>
</defs>
</svg>
