<svg width="100" height="100" viewBox="0 0 100 100" fill="none" xmlns="http://www.w3.org/2000/svg">
<path fill-rule="evenodd" clip-rule="evenodd" d="M76.3069 27.0557H79.0279C82.2675 27.0557 84.9884 29.6326 84.9884 32.8528V40.3252H96.1321C98.2054 40.3252 100.538 42.1286 99.8897 43.9328L87.8384 80.2641C87.1907 82.1966 86.154 84 84.2098 84H3.73891C1.79526 84 -0.537338 82.1966 0.110346 80.2641L0.36966 79.6202C0.110346 79.1046 0.110346 78.5895 0.110346 78.0738V15.7177C0.110346 13.6564 1.79465 11.9818 3.86791 11.9818H12.6796V8.632C12.6796 3.86548 16.5669 0 21.3617 0H67.6214C72.4156 0 76.3035 3.86488 76.3035 8.632V27.0549L76.3069 27.0557ZM25.6404 33.1107H63.3487V37.3623H25.6404V33.1107ZM25.6404 22.0313H63.3487V26.4117H25.6404V22.0313ZM25.6404 11.0801H63.3487V15.4606H25.6404V11.0801ZM17.0879 11.9819V40.3257H71.9003V8.63241C71.9003 6.31327 69.9567 4.38083 67.6241 4.38083H21.3644C19.0318 4.38083 17.0882 6.31327 17.0882 8.63241L17.0879 11.9819ZM12.682 16.3623H4.51861V66.9946L12.0343 43.9337C12.2936 43.418 12.4233 43.0319 12.682 42.5163V16.3623ZM76.3068 40.3247H80.583V32.8523C80.583 32.0795 79.8057 31.435 79.0277 31.435H76.3068V40.3247Z" fill="url(#paint0_linear_321_1421)"/>
<defs>
<linearGradient id="paint0_linear_321_1421" x1="50" y1="0" x2="50" y2="84" gradientUnits="userSpaceOnUse">
<stop stop-color="#FAD32E"/>
<stop offset="1" stop-color="#FFAC30"/>
</linearGradient>
</defs>
</svg>
