<svg width="87" height="61" viewBox="0 0 87 61" fill="none" xmlns="http://www.w3.org/2000/svg">
<path d="M71.5304 30.0914C63.2331 30.0914 56.481 36.8418 56.481 45.1409C56.481 53.4382 63.2331 60.1894 71.5304 60.1894C79.8278 60.1894 86.5798 53.4391 86.5798 45.1409C86.579 36.8409 79.8269 30.0914 71.5304 30.0914ZM78.2968 48.0171L78.2824 48.0315L73.0201 42.7657V53.2718H70.0112V42.7657L64.7614 48.017V43.7644L71.5135 37.0114L78.2967 43.7938L78.2968 48.0171ZM70.8629 20.0744C70.8536 20.0744 70.8409 20.0753 70.8325 20.0753C70.4404 14.6077 65.8827 10.2899 60.3136 10.2899C58.4708 10.2899 56.7387 10.7639 55.2321 11.5937C51.631 4.7047 44.4226 0 36.1092 0C24.4227 0 14.9136 9.29541 14.5569 20.8958C6.41073 21.543 0 28.3541 0 36.666C0 45.4044 7.08496 52.4893 15.8251 52.4893H54.421C53.4484 50.2324 52.9068 47.7483 52.9068 45.1416C52.9068 34.8713 61.2626 26.517 71.5314 26.517C77.9683 26.517 83.6539 29.8023 87 34.7815C86.2421 26.5356 79.3109 20.0743 70.8638 20.0743L70.8629 20.0744ZM26.7036 11.8234C26.5811 11.9248 26.4586 12.027 26.3436 12.1385C25.8907 12.5762 25.4699 13.0375 25.1404 13.5766C23.8772 15.6417 23.6373 17.8545 23.9135 20.2339C24.1797 22.5212 20.6006 22.4959 20.3386 20.2339C19.8469 16.0075 21.1988 11.2377 24.8837 8.74927C26.795 7.45564 28.5761 10.533 26.7037 11.8232L26.7036 11.8234ZM26.6664 11.8496C26.4763 12.0067 26.5861 11.9087 26.6664 11.8496V11.8496Z" fill="#E2E3E9" fill-opacity="0.16"/>
</svg>
