<svg width="21" height="12" viewBox="0 0 21 12" fill="none" xmlns="http://www.w3.org/2000/svg">
<path d="M10.0065 0.000285927C6.01806 0.000285927 2.04194 2.65461 0 5.50493C2.04194 8.37188 6.01606 11.0099 10.0065 11.0099C13.996 11.0099 18.3772 8.37162 20.0106 5.51322C18.3772 2.65456 13.9957 0 10.0065 0V0.000285927ZM10.0055 9.63227C7.72602 9.63227 5.87812 7.78463 5.87812 5.50521C5.87812 3.22577 7.72588 1.37788 10.0055 1.37788C12.285 1.37788 14.1328 3.22563 14.1328 5.50521C14.1328 7.78454 12.285 9.63227 10.0055 9.63227Z" fill="#FAD32E"/>
<path d="M12.5417 4.0212C12.5417 4.56346 12.1023 5.00229 11.5604 5.00229C11.0183 5.00229 10.5796 4.56343 10.5793 4.0212C10.5793 3.47894 11.0182 3.03942 11.5604 3.03942C11.6051 3.03942 11.6476 3.04679 11.6905 3.0526C11.2109 2.72262 10.6309 2.52832 10.0052 2.52832C8.3614 2.52832 7.02881 3.86129 7.02881 5.50476C7.02881 7.14823 8.36177 8.48149 10.0052 8.48149C11.6487 8.48149 12.982 7.14852 12.982 5.50476C12.982 4.92968 12.816 4.39457 12.5337 3.93953C12.5359 3.967 12.5417 3.99324 12.5417 4.02105L12.5417 4.0212Z" fill="#FAD32E"/>
</svg>
