<svg width="133" height="133" viewBox="0 0 133 133" fill="none" xmlns="http://www.w3.org/2000/svg">
<circle cx="66.8529" cy="66.1444" r="66.0165" fill="#272727"/>
<circle cx="66.8529" cy="66.1444" r="65.0165" stroke="#FAD32E" stroke-opacity="0.6" stroke-width="2"/>
<path d="M93.3406 69.8073C92.4243 67.5466 92.4243 65.0413 93.3406 62.8416L93.6462 62.1085C95.6017 57.4647 93.3406 52.0876 88.697 50.1323L88.0249 49.8267C85.7642 48.9103 83.9919 47.138 83.0756 44.8774L82.8314 44.2662C80.8146 39.6225 75.4987 37.4228 70.7941 39.317L70.1829 39.5612C67.9222 40.4776 65.4169 40.4776 63.1563 39.5612L62.6065 39.317C58.0237 37.4229 52.6466 39.6836 50.6914 44.3272L50.4472 44.8161C49.5308 47.0768 47.7585 48.849 45.4979 49.7653L44.9481 50.0096C40.365 51.9651 38.1043 57.3423 40.0593 61.9868L40.3036 62.5367C41.2199 64.7974 41.2199 67.3027 40.3036 69.5024L40.0593 70.1746C38.1043 74.8183 40.304 80.1954 45.0086 82.0896L45.6198 82.3339C47.8805 83.2502 49.6527 85.0225 50.569 87.2831L50.8746 87.9552C52.7687 92.6603 58.1459 94.86 62.7897 92.9659L63.4618 92.6603C65.7225 91.7439 68.2278 91.7439 70.4884 92.6603L71.0383 92.9045C75.682 94.86 81.0591 92.5989 83.0144 87.9553L83.2587 87.4664C84.175 85.2057 85.9473 83.4335 88.2079 82.5172L88.6968 82.3339C93.4018 80.3784 95.6015 75.0626 93.646 70.3577L93.3406 69.8073ZM64.2556 78.056L52.3406 68.0351L56.007 63.6966L63.5838 70.1125L76.9654 54.2257L81.3039 57.8921L64.2556 78.056Z" fill="url(#paint0_linear_343_180)"/>
<defs>
<linearGradient id="paint0_linear_343_180" x1="41.4092" y1="66.141" x2="94.3594" y2="66.141" gradientUnits="userSpaceOnUse">
<stop stop-color="#FAD32E"/>
<stop offset="1" stop-color="#FFAC30"/>
</linearGradient>
</defs>
</svg>
