<svg width="127" height="24" viewBox="0 0 127 24" fill="none" xmlns="http://www.w3.org/2000/svg">
<path d="M42.6562 5.03125H49.4723C51.1151 5.03125 52.5049 5.28696 53.6418 5.79837C54.6884 6.23735 55.5772 6.98241 56.1909 7.93536C56.7654 8.87676 57.0598 9.96168 57.0398 11.0636C57.0524 12.1706 56.7465 13.258 56.1584 14.1969C55.5024 15.1887 54.5643 15.9623 53.4645 16.4185C52.2594 16.9665 50.7656 17.2396 48.9829 17.238H42.6562V5.03125ZM48.913 14.1321C50.0199 14.1321 50.8704 13.8565 51.4646 13.3052C51.7659 13.0137 52.0013 12.6614 52.155 12.2718C52.3088 11.8822 52.3773 11.4643 52.356 11.0462C52.3745 10.658 52.3137 10.2702 52.1772 9.90623C52.0407 9.54227 51.8314 9.20983 51.562 8.92913C51.0294 8.40111 50.2279 8.13627 49.1577 8.13461H47.0255V14.1321H48.913Z" fill="black"/>
<path d="M67.246 17.2178C66.3468 16.993 65.4866 16.6345 64.6943 16.1543V13.2601C65.386 13.762 66.1648 14.1319 66.9913 14.351C67.8955 14.6263 68.8348 14.7697 69.7801 14.777C70.1064 14.7943 70.4324 14.7381 70.7339 14.6126C70.9486 14.503 71.0559 14.3635 71.0559 14.219C71.0582 14.1383 71.0439 14.058 71.0139 13.983C70.9838 13.9081 70.9386 13.84 70.8812 13.7832C70.6817 13.6302 70.4477 13.5284 70.1996 13.4868L68.1023 13.0161C66.9006 12.7371 66.0475 12.351 65.5432 11.8579C65.29 11.6032 65.0927 11.2987 64.9638 10.9638C64.8348 10.629 64.7771 10.271 64.7942 9.91269C64.7858 9.26331 65.0229 8.63459 65.4583 8.1518C65.9746 7.60702 66.6256 7.20756 67.3458 6.99364C68.2727 6.70302 69.2407 6.56423 70.2121 6.58268C71.1189 6.57418 72.0231 6.67962 72.9035 6.8965C73.6146 7.06458 74.2975 7.33473 74.9308 7.6985V10.4382C74.3369 10.0945 73.6984 9.83384 73.0333 9.66363C72.3127 9.47088 71.5698 9.37373 70.8238 9.37471C69.7285 9.37471 69.1809 9.56068 69.1809 9.93262C69.1791 10.0154 69.2018 10.097 69.2462 10.167C69.2906 10.237 69.3548 10.2923 69.4306 10.3261C69.7298 10.4531 70.0434 10.5434 70.3644 10.5951L72.112 10.909C73.2472 11.1082 74.0936 11.4569 74.6512 11.955C75.2088 12.4532 75.4884 13.1821 75.4901 14.1418C75.499 14.6465 75.3753 15.1447 75.1313 15.5869C74.8873 16.0291 74.5316 16.3999 74.0994 16.6624C73.179 17.2784 71.8649 17.5856 70.1571 17.5839C69.1751 17.5854 68.1969 17.4624 67.246 17.2178V17.2178Z" fill="black"/>
<path d="M79.6197 16.8517C78.6854 16.4234 77.8979 15.7305 77.3552 14.8592C76.849 14.0047 76.5898 13.0272 76.6062 12.0348C76.5911 11.043 76.8643 10.0681 77.3927 9.22782C77.9559 8.37018 78.7576 7.69504 79.6996 7.28511C80.845 6.78723 82.0858 6.54579 83.3348 6.57776C85.0825 6.57776 86.5331 6.94389 87.6866 7.67614V10.8717C87.2478 10.5774 86.7684 10.3483 86.2635 10.1917C85.6982 10.0137 85.1085 9.92545 84.5158 9.93019C83.4322 9.93019 82.5842 10.1278 81.9716 10.523C81.6963 10.6763 81.4666 10.8996 81.3058 11.1702C81.1451 11.4408 81.0591 11.7491 81.0565 12.0637C81.054 12.3782 81.135 12.6878 81.2914 12.961C81.4477 13.2342 81.6738 13.4612 81.9467 13.6189C82.5409 14.019 83.4031 14.2191 84.5332 14.2191C85.1166 14.2205 85.697 14.1366 86.256 13.97C86.7658 13.8242 87.2556 13.6159 87.7141 13.3499V16.4383C86.3631 17.224 84.8209 17.6222 83.2574 17.589C82.0044 17.6231 80.7601 17.3709 79.6197 16.8517V16.8517Z" fill="black"/>
<path d="M92.0387 16.8519C91.0939 16.4215 90.2924 15.73 89.7293 14.8594C89.1986 14.0069 88.9231 13.0209 88.9353 12.0175C88.9184 11.026 89.1945 10.0515 89.7293 9.21552C90.2954 8.36699 91.0934 7.69801 92.0287 7.28775C94.3263 6.35786 96.8967 6.35786 99.1943 7.28775C100.126 7.69488 100.921 8.36058 101.484 9.20556C102.015 10.0446 102.288 11.0204 102.27 12.0125C102.283 13.0149 102.01 14.0003 101.484 14.8544C100.927 15.7256 100.129 16.4176 99.1868 16.8469C98.0575 17.33 96.8415 17.5792 95.6128 17.5792C94.384 17.5792 93.168 17.33 92.0387 16.8469V16.8519ZM97.3492 13.7585C97.5652 13.5361 97.7332 13.272 97.8431 12.9825C97.9531 12.693 98.0025 12.3841 97.9884 12.0748C98.0035 11.7684 97.9544 11.4622 97.8444 11.1758C97.7343 10.8893 97.5657 10.6289 97.3492 10.411C97.1144 10.1962 96.8387 10.0306 96.5385 9.92405C96.2382 9.81752 95.9196 9.77223 95.6015 9.79087C95.2836 9.77419 94.9655 9.8204 94.6656 9.92683C94.3656 10.0333 94.0898 10.1978 93.8538 10.411C93.6382 10.6294 93.4702 10.89 93.3606 11.1763C93.2511 11.4627 93.2022 11.7686 93.2172 12.0748C93.2032 12.3839 93.2524 12.6925 93.3619 12.982C93.4713 13.2714 93.6387 13.5356 93.8538 13.7585C94.0875 13.976 94.3626 14.1444 94.6629 14.2535C94.9632 14.3626 95.2824 14.4103 95.6015 14.3936C95.9208 14.4121 96.2406 14.3654 96.5411 14.2561C96.8417 14.1469 97.1167 13.9776 97.3492 13.7585V13.7585Z" fill="black"/>
<path d="M112.774 7.22283V10.9937C112.252 10.6831 111.651 10.5316 111.044 10.5578C110.113 10.5578 109.393 10.8418 108.894 11.4046C108.395 11.9675 108.145 12.8418 108.145 14.0273V17.2353H103.863V7.03603H108.058V10.2739C108.291 9.08833 108.667 8.21411 109.186 7.65122C109.438 7.37443 109.747 7.15539 110.092 7.00919C110.437 6.863 110.809 6.79313 111.184 6.8044C111.743 6.78918 112.295 6.9344 112.774 7.22283V7.22283Z" fill="black"/>
<path d="M127 4.68237V17.2353H122.718V14.9439C122.395 15.7597 121.815 16.4485 121.065 16.9065C120.237 17.377 119.296 17.6113 118.344 17.584C117.448 17.6048 116.566 17.3595 115.81 16.8791C115.077 16.4047 114.494 15.734 114.127 14.9439C113.726 14.0718 113.526 13.1211 113.543 12.1618C113.514 11.1672 113.727 10.1805 114.162 9.28511C114.562 8.465 115.186 7.77429 115.962 7.29259C116.76 6.81033 117.678 6.56255 118.611 6.57777C120.648 6.57777 122.017 7.46112 122.718 9.22783V4.68237H127ZM122.089 13.6986C122.307 13.4843 122.478 13.227 122.591 12.9431C122.704 12.6593 122.757 12.355 122.745 12.0497C122.755 11.7536 122.701 11.4589 122.588 11.185C122.475 10.9111 122.305 10.6643 122.089 10.4607C121.599 10.0628 120.986 9.8456 120.355 9.8456C119.723 9.8456 119.111 10.0628 118.621 10.4607C118.406 10.669 118.237 10.9201 118.125 11.1977C118.014 11.4754 117.962 11.7733 117.974 12.0722C117.963 12.3738 118.016 12.6744 118.128 12.9545C118.241 13.2347 118.411 13.4881 118.628 13.6986C118.858 13.9113 119.127 14.0761 119.421 14.1835C119.716 14.2909 120.028 14.3385 120.341 14.3237C120.659 14.3413 120.978 14.295 121.278 14.1876C121.579 14.0802 121.854 13.914 122.089 13.6986V13.6986Z" fill="black"/>
<path d="M26.8895 2.00996C24.804 1.05745 22.6023 0.381713 20.3406 0C20.0312 0.551901 19.7511 1.11973 19.5018 1.70112C17.0927 1.33898 14.6429 1.33898 12.2338 1.70112C11.9843 1.11979 11.7043 0.551968 11.3949 0C9.1319 0.384937 6.92875 1.06228 4.84109 2.01494C0.696557 8.132 -0.426961 14.0971 0.134798 19.9776C2.56194 21.7665 5.27861 23.127 8.16671 24C8.81702 23.1275 9.39247 22.2018 9.88694 21.2329C8.94776 20.883 8.04129 20.4512 7.17801 19.9427C7.40521 19.7783 7.62742 19.609 7.84213 19.4446C10.3541 20.623 13.0957 21.234 15.8715 21.234C18.6474 21.234 21.389 20.623 23.901 19.4446C24.1182 19.6214 24.3404 19.7908 24.5651 19.9427C23.7001 20.4521 22.792 20.8846 21.8512 21.2354C22.345 22.2039 22.9205 23.1287 23.5714 24C26.462 23.1305 29.1807 21.7707 31.6083 19.9801V19.9801C32.2674 13.1606 30.4823 7.25031 26.8895 2.00996ZM10.5985 16.3611C9.03306 16.3611 7.73977 14.944 7.73977 13.2005C7.73977 11.457 8.98812 10.0274 10.5935 10.0274C12.1989 10.0274 13.4822 11.457 13.4547 13.2005C13.4273 14.944 12.1939 16.3611 10.5985 16.3611ZM21.1446 16.3611C19.5767 16.3611 18.2884 14.944 18.2884 13.2005C18.2884 11.457 19.5367 10.0274 21.1446 10.0274C22.7525 10.0274 24.0258 11.457 23.9983 13.2005C23.9709 14.944 22.74 16.3611 21.1446 16.3611Z" fill="black"/>
<path d="M60.6503 8.12204C61.8293 8.12204 62.785 7.26564 62.785 6.20921C62.785 5.15279 61.8293 4.29639 60.6503 4.29639C59.4714 4.29639 58.5156 5.15279 58.5156 6.20921C58.5156 7.26564 59.4714 8.12204 60.6503 8.12204Z" fill="black"/>
<path d="M58.5127 9.43945C59.1889 9.72298 59.9151 9.86902 60.6486 9.86902C61.3822 9.86902 62.1083 9.72298 62.7846 9.43945V17.29H58.5127V9.43945Z" fill="black"/>
</svg>
