<svg width="12" height="12" viewBox="0 0 12 12" fill="none" xmlns="http://www.w3.org/2000/svg">
<path d="M11 12C10.7348 12 10.4804 11.8946 10.2929 11.7071C10.1054 11.5196 10 11.2652 10 11V2H1C0.734784 2 0.48043 1.89464 0.292893 1.70711C0.105357 1.51957 0 1.26522 0 1C0 0.734784 0.105357 0.48043 0.292893 0.292893C0.48043 0.105357 0.734784 0 1 0H11C11.2652 0 11.5196 0.105357 11.7071 0.292893C11.8946 0.48043 12 0.734784 12 1V11C12 11.2652 11.8946 11.5196 11.7071 11.7071C11.5196 11.8946 11.2652 12 11 12Z" fill="#1D1E2C"/>
<path d="M0.999787 12.0001C0.802037 12 0.608738 11.9414 0.444329 11.8315C0.279919 11.7216 0.151779 11.5654 0.0761092 11.3827C0.000439122 11.2 -0.0193641 10.999 0.0192034 10.805C0.057771 10.6111 0.152978 10.4329 0.292787 10.2931L10.2928 0.293078C10.4809 0.108368 10.7343 0.00540825 10.9979 0.00660206C11.2615 0.00779588 11.514 0.113046 11.7004 0.299453C11.8868 0.485859 11.9921 0.738337 11.9933 1.00195C11.9945 1.26557 11.8915 1.51899 11.7068 1.70708L1.70679 11.7071C1.61406 11.8001 1.50386 11.8739 1.38253 11.9241C1.2612 11.9744 1.13112 12.0002 0.999787 12.0001V12.0001Z" fill="#1D1E2C"/>
</svg>
