<svg width="89" height="34" viewBox="0 0 89 34" fill="none" xmlns="http://www.w3.org/2000/svg">
<path d="M2.97337 34H0V9.00541H2.97337V11.9092C3.59282 10.8555 4.39811 10.0468 5.38923 9.48324C6.40513 8.91964 7.54492 8.63784 8.8086 8.63784C10.3696 8.63784 11.782 8.99315 13.0457 9.70378C14.3341 10.4144 15.3624 11.4314 16.1305 12.7546C16.8986 14.0533 17.2827 15.6216 17.2827 17.4595C17.2827 19.2728 16.8986 20.8411 16.1305 22.1643C15.3624 23.4876 14.3341 24.5045 13.0457 25.2151C11.782 25.9258 10.3696 26.2811 8.8086 26.2811C7.54492 26.2811 6.40513 25.9993 5.38923 25.4357C4.39811 24.8721 3.59282 24.0634 2.97337 23.0097V34ZM14.2722 17.4595C14.2722 16.1607 13.9996 15.058 13.4545 14.1514C12.9342 13.2447 12.228 12.5586 11.336 12.093C10.4687 11.6274 9.50239 11.3946 8.43693 11.3946C7.5697 11.3946 6.71486 11.6274 5.8724 12.093C5.02995 12.5586 4.33616 13.2447 3.79104 14.1514C3.24593 15.058 2.97337 16.1607 2.97337 17.4595C2.97337 18.7582 3.24593 19.8609 3.79104 20.7676C4.33616 21.6742 5.02995 22.3604 5.8724 22.8259C6.71486 23.2915 7.5697 23.5243 8.43693 23.5243C9.50239 23.5243 10.4687 23.2915 11.336 22.8259C12.228 22.3604 12.9342 21.6742 13.4545 20.7676C13.9996 19.8609 14.2722 18.7582 14.2722 17.4595Z" fill="white"/>
<path d="M21.3827 2.02162C21.3827 1.45802 21.5809 0.98018 21.9774 0.588109C22.3986 0.196036 22.8818 0 23.4269 0C23.9968 0 24.48 0.196036 24.8764 0.588109C25.2729 0.98018 25.4711 1.45802 25.4711 2.02162C25.4711 2.56072 25.2729 3.03856 24.8764 3.45514C24.48 3.84721 23.9968 4.04324 23.4269 4.04324C22.8818 4.04324 22.3986 3.84721 21.9774 3.45514C21.5809 3.03856 21.3827 2.56072 21.3827 2.02162ZM21.9402 9.00541H24.9136V25.9135H21.9402V9.00541Z" fill="white"/>
<path d="M39.177 12.24C38.7806 11.9459 38.4213 11.7377 38.0992 11.6151C37.7771 11.4681 37.3682 11.3946 36.8727 11.3946C35.7577 11.3946 35.0019 11.7989 34.6055 12.6076C34.209 13.3917 34.0108 14.3964 34.0108 15.6216V25.9135H31.0374V9.00541H34.0108V10.9535C34.4816 10.2429 35.0391 9.67928 35.6833 9.2627C36.3275 8.84613 36.9718 8.63784 37.616 8.63784C38.2355 8.63784 38.8054 8.7236 39.3257 8.89513C39.8708 9.04216 40.3664 9.34847 40.8124 9.81405L39.177 12.24Z" fill="white"/>
<path d="M44.6693 12.9016L43.2198 10.733C43.864 10.2674 44.7437 9.8018 45.8587 9.33622C46.9985 8.87063 48.3613 8.63784 49.9471 8.63784C51.9293 8.63784 53.5399 9.09117 54.7788 9.99784C56.0177 10.88 56.6371 12.142 56.6371 13.7838V25.9135H53.6638V23.6346C53.1187 24.5168 52.301 25.1784 51.2107 25.6195C50.1205 26.0605 49.055 26.2811 48.0144 26.2811C46.9737 26.2811 45.995 26.0728 45.0782 25.6562C44.1862 25.2151 43.4676 24.5903 42.9225 23.7816C42.3774 22.973 42.1048 21.9928 42.1048 20.8411C42.1048 19.1993 42.6871 17.8883 43.8517 16.9081C45.041 15.9034 46.6887 15.4011 48.7949 15.4011C49.9347 15.4011 50.901 15.5359 51.6939 15.8054C52.5116 16.0504 53.1682 16.3323 53.6638 16.6508V14.1881C53.6638 13.0364 53.2797 12.2523 52.5116 11.8357C51.7682 11.4191 50.8638 11.2108 49.7984 11.2108C48.5099 11.2108 47.4321 11.4191 46.5649 11.8357C45.6976 12.2523 45.0658 12.6076 44.6693 12.9016ZM45.1153 20.6941C45.1153 21.6742 45.4498 22.4339 46.1189 22.973C46.8126 23.4876 47.7046 23.7449 48.7949 23.7449C50.1577 23.7449 51.3099 23.3405 52.2514 22.5319C53.193 21.7232 53.6638 20.645 53.6638 19.2973V18.6724C52.97 18.3294 52.2638 18.0843 51.5452 17.9373C50.8267 17.7903 50.071 17.7168 49.2781 17.7168C47.8409 17.7168 46.7879 17.9863 46.1189 18.5254C45.4498 19.04 45.1153 19.7629 45.1153 20.6941Z" fill="white"/>
<path d="M59.0695 9.00541H61.8571V3.12433H64.8304V9.00541H67.618V11.7622H64.8304V25.9135H61.8571V11.7622H59.0695V9.00541Z" fill="white"/>
<rect x="71.3496" y="21.7383" width="17.2799" height="3.90192" rx="0.2" fill="url(#paint0_linear_5_529)"/>
<rect x="71.3496" y="16.1638" width="17.2799" height="4.45933" rx="0.2" fill="url(#paint1_linear_5_529)"/>
<rect x="71.3496" y="11.1475" width="17.2799" height="3.90192" rx="0.2" fill="url(#paint2_linear_5_529)"/>
<rect x="74.6943" y="21.7383" width="1.11483" height="3.90192" fill="url(#paint3_linear_5_529)"/>
<rect x="74.6943" y="16.1638" width="1.11483" height="4.45933" fill="url(#paint4_linear_5_529)"/>
<rect x="74.6943" y="11.1472" width="1.11483" height="3.90192" fill="url(#paint5_linear_5_529)"/>
<defs>
<linearGradient id="paint0_linear_5_529" x1="79.9896" y1="21.7383" x2="79.9896" y2="25.6402" gradientUnits="userSpaceOnUse">
<stop stop-color="#FFF857"/>
<stop offset="1" stop-color="#FF9C06"/>
</linearGradient>
<linearGradient id="paint1_linear_5_529" x1="79.9896" y1="16.1638" x2="79.9896" y2="20.6231" gradientUnits="userSpaceOnUse">
<stop stop-color="#FFF857"/>
<stop offset="1" stop-color="#FF9C06"/>
</linearGradient>
<linearGradient id="paint2_linear_5_529" x1="79.9896" y1="11.1475" x2="79.9896" y2="15.0494" gradientUnits="userSpaceOnUse">
<stop stop-color="#FFF857"/>
<stop offset="1" stop-color="#FF9C06"/>
</linearGradient>
<linearGradient id="paint3_linear_5_529" x1="75.2518" y1="21.7383" x2="75.2518" y2="25.6402" gradientUnits="userSpaceOnUse">
<stop stop-color="white"/>
<stop offset="1" stop-color="white" stop-opacity="0"/>
</linearGradient>
<linearGradient id="paint4_linear_5_529" x1="75.2518" y1="16.1638" x2="75.2518" y2="20.6231" gradientUnits="userSpaceOnUse">
<stop stop-color="white"/>
<stop offset="1" stop-color="white" stop-opacity="0"/>
</linearGradient>
<linearGradient id="paint5_linear_5_529" x1="75.2518" y1="11.1472" x2="75.2518" y2="15.0491" gradientUnits="userSpaceOnUse">
<stop stop-color="white"/>
<stop offset="1" stop-color="white" stop-opacity="0"/>
</linearGradient>
</defs>
</svg>
